#!OML:ASF F:\VICON\USERDATA\INSTALL\rory3\rory3.ASF
:FULLY-SPECIFIED
:DEGREES
78
root 0.6051593357176295 17.83055302073801 45.05447142203761 -3.1797352081198826 -1.893780460508747 1.619533403274795
lfemur 0.7577499712172848 -3.408095645861356 -27.0225546445442
ltibia 23.34541806557964
lfoot -15.300916070974388 3.271510426504138
ltoes 1.7883622142310185
rfemur -28.42116224069632 -0.12127827320321316 20.19403236625313
rtibia 50.398149895105945
rfoot -8.98992557627063 -10.829380725094465
rtoes 2.3171931964887755
lowerback 10.154346046956658 0.01815888713187641 -2.3531740377531554
upperback 0.7852234316328857 -0.20768630848733083 0.8365480077778998
thorax -4.85968254645278 -0.04685071928283391 2.250323657683143
lowerneck -16.472028305527527 -2.7945934914382544 -3.691236596213108
upperneck 20.381006796516235 -3.5664505511749627 2.365667557212618
head 9.146512281304307 -1.6793674578391369 0.9163652016561149
lclavicle -2.5493246295441005e-15 -2.501902797649931e-16
lhumerus -25.45513407741495 -1.4643846201135313 82.4027669108988
lradius 23.911292947975635
lwrist 6.386963949587749
lhand -28.334146412854388 21.62069801895231
lfingers 7.1250199999999975
lthumb -1.7085672130008582 51.59891810362454
rclavicle -2.5493246295441005e-15 -2.501902797649931e-16
rhumerus -29.009865371495646 -16.06627859759989 -80.85625224089299
rradius 27.179856943185545
rwrist 4.627291555837276
rhand -16.718018365465127 22.290678482680136
rfingers 7.1250199999999975
rthumb 9.507481405735206 -7.386847548613219
79
root 0.533397385105324 17.7988605175012 46.50086930203902 -2.4665804742795285 -0.9295064011202181 2.2522550812847038
lfemur 5.1042330253395995 -3.1542851125254643 -27.650527969331804
ltibia 19.051295693592284
lfoot -15.54340981737636 2.6514421234213907
ltoes 0.45674507159770616
rfemur -29.4867088692872 1.8177389382190223 18.681438270461733
rtibia 37.079304529149525
rfoot -9.56370909302712 -14.20626570655093
rtoes 0.7673445737477147
lowerback 9.866251819849749 -0.4332615152648772 -3.323367911797564
upperback 0.6820331143708114 -0.9006012421249907 0.9009134115950324
thorax -4.76140494025633 -0.3714694266446612 2.884105812871315
lowerneck -16.562572418749873 -2.810502028465894 -3.8699438345273007
upperneck 20.249181830334848 -3.5879480668616703 2.548322143598683
head 9.1163143591225 -1.6808870892059764 0.9854910705122382
lclavicle -2.625221650605502e-15 -3.0126498994272345e-16
lhumerus -22.851398492025627 -3.438029510405986 82.26245824535305
lradius 25.85940012694576
lwrist 7.3766924875899225
lhand -28.17090928815796 22.31315390195178
lfingers 7.1250199999999975
lthumb -1.5509639067929015 52.293188570640496
rclavicle -2.625221650605502e-15 -3.0126498994272345e-16
rhumerus -29.72846276311418 -16.24944156796354 -80.68450973833404
rradius 26.81588516459062
rwrist 4.530808241113164
rhand -16.615913184792074 22.79686880051367
rfingers 7.1250199999999975
rthumb 9.606036863607205 -6.854443011726539
80
root 0.4614209132606241 17.74829440766009 48.15116737671927 -1.7467047114516454 -0.03598769812520697 2.8450683452171632
lfemur 9.849336597258763 -3.0832092150431385 -27.752036276164233
ltibia 15.78509913344359
lfoot -15.247691197589006 1.865636139412172
ltoes -1.9789671305273844
rfemur -29.10342757536145 3.997655628731227 17.52682763254399
rtibia 25.746328956603435
rfoot -9.581835387441876 -16.300056757096684
rtoes -0.8925129590796073
lowerback 9.521765173495503 -0.781587781934613 -4.0186136588451635
upperback 0.5965543024255886 -1.422123961447959 1.0166830145704158
thorax -4.613004102098223 -0.617982696007288 3.5247497791906586
lowerneck -16.66014223238703 -2.790401103954 -3.90696490937985
upperneck 20.202965200320882 -3.5630799349448985 2.6478028713203914
head 9.120479604536294 -1.6652213133727811 1.0224541608565225
lclavicle -2.169465571300772e-15 2.179704530575718e-18
lhumerus -20.406768860543572 -4.7400617378600804 82.05547853555795
lradius 27.766298500982195
lwrist 8.198132960238064
lhand -28.195594533232434 22.570512891654786
lfingers 7.1250199999999975
lthumb -1.5748140952008698 52.547054206683065
rclavicle -2.169465571300772e-15 2.179704530575718e-18
rhumerus -30.325556671248158 -17.01182449348298 -80.04824316131136
rradius 26.069640047001723
rwrist 5.367054980175895
rhand -16.587861417020953 23.424697924163432
rfingers 7.1250199999999975
rthumb 9.63312609762719 -6.251370937825833
81
root 0.38640183767548353 17.672193962246038 48.62618157677347 -1.3266570658354337 0.4511978596876993 2.9555467651295237
lfemur 13.246210356723523 -3.548293861026713 -27.777798834770067
ltibia 13.857464496968092
lfoot -15.023758171272725 0.6329537758391519
ltoes -5.955386563409603
rfemur -28.981055623100175 5.320070952914137 16.93902371294185
rtibia 19.382855688940282
rfoot -9.333394510736902 -15.88565886874246
rtoes -2.5617860222415527
lowerback 9.242372483831275 -1.085421657868427 -4.484893530401936
upperback 0.543110972590428 -1.8536615706420765 1.1661004666720782
thorax -4.4997453059911905 -0.8243645040941937 3.915669014535877
lowerneck -16.792044080545306 -2.7658307913143165 -3.9097282679886227
upperneck 20.23603018726495 -3.527792154556477 2.6015299753690346
head 9.150191732815982 -1.6500781293806888 1.0145202260955837
lclavicle -2.4278757603423194e-15 -1.7043767107609324e-16
lhumerus -18.88307670362344 -5.61461170821517 81.88653212023752
lradius 29.187886779289837
lwrist 8.628442390447455
lhand -28.633155296328415 21.953058216793977
lfingers 7.1250199999999975
lthumb -1.9973685408507702 51.92048692303781
rclavicle -2.4278757603423194e-15 -1.7043767107609324e-16
rhumerus -31.05134604535912 -18.72848230442002 -79.1045493792835
rradius 24.868043986288882
rwrist 6.780295406052401
rhand -16.76849701183346 23.876628366870538
rfingers 7.1250199999999975
rthumb 9.458795196753146 -5.853053406307996
82
root 0.3297205273300475 17.615568945984908 49.584947089877005 -1.230975593303446 0.770912155728162 2.7882062577832056
lfemur 15.913033035248802 -4.217125899149016 -27.192667673811542
ltibia 15.552589354141478
lfoot -13.578240634377895 -0.6761959589670186
ltoes -10.073911607807641
rfemur -28.458489753673184 5.656977436531636 17.65271042459699
rtibia 19.901982088851113
rfoot -7.873436915230332 -12.890665792311378
rtoes -2.710199811469947
lowerback 9.139544914098174 -1.2109078944299467 -4.300176917758696
upperback 0.5407007428184611 -1.9907154626814298 1.432645607636661
thorax -4.428652857237673 -0.8944564578731863 4.190741284310511
lowerneck -16.862341340687152 -2.7051768320035072 -3.841636778745764
upperneck 20.414323107377893 -3.424314638551972 2.439699527139548
head 9.226534844269628 -1.616955264945105 0.9850554390513714
lclavicle -1.8953456263486992e-15 1.8510007594439294e-16
lhumerus -18.043449990853194 -5.4756315528839785 81.96808606152426
lradius 30.318705589104184
lwrist 8.907584838272566
lhand -29.200952539248398 21.228808667319818
lfingers 7.1250199999999975
lthumb -2.545692734177703 51.18693237836109
rclavicle -1.8953456263486992e-15 1.8510007594439294e-16
rhumerus -31.67981352563892 -20.70768771758597 -77.78884032595099
rradius 23.613171151048842
rwrist 8.702619163644561
rhand -16.930334486034333 24.107427678975696
rfingers 7.1250199999999975
rthumb 9.302596326884665 -5.628426529462527
83
root 0.260517668080971 17.59996508176489 49.27820209883774 -1.4894907874022105 0.6656571565573413 1.9130597436194479
lfemur 16.061713598189264 -4.942453837853171 -26.29411721083587
ltibia 19.470942543236642
lfoot -10.508470480311072 -3.013474570758815
ltoes -13.495722077619467
rfemur -28.40813010208035 5.247597251272118 19.05098812125221
rtibia 23.431941328391503
rfoot -6.27321786615089 -9.231755142822191
rtoes -1.031237789165147
lowerback 9.086744693529486 -1.313008335666912 -3.730488533664394
upperback 0.5165811857996481 -2.0601747186731267 1.7386942456064816
thorax -4.432523214922291 -0.9346849281789874 4.106318214694283
lowerneck -16.810443446594956 -2.6273451737929205 -3.771618494325392
upperneck 20.68082566843271 -3.285559457738654 2.123089068996499
head 9.298958382558073 -1.5789797015065152 0.9192770958530685
lclavicle -2.223980902402643e-15 -3.330720412113406e-17
lhumerus -18.521186101185314 -4.724864137071709 82.16335493519192
lradius 30.87743942824411
lwrist 8.890798301931056
lhand -29.648105093588548 20.699652083035918
lfingers 7.1250199999999975
lthumb -2.9775233526401275 50.650895701490654
rclavicle -2.223980902402643e-15 -3.330720412113406e-17
rhumerus -32.49372802772362 -23.107139875702767 -76.45797500725119
rradius 22.256231657188604
rwrist 10.640056290092048
rhand -17.038687656324417 23.838510334874034
rfingers 7.1250199999999975
rthumb 9.19800807757659 -5.8314337920201815
84
root 0.18756711948948043 17.64509905637453 48.78848527282373 -1.8856048496554054 0.44279529095451853 0.6229217852871414
lfemur 14.407584286331705 -5.301275732225662 -24.521759781832152
ltibia 26.292749193546403
lfoot -4.632793102531311 -6.186256218344206
ltoes -13.926657649205259
rfemur -27.284677752562448 4.872458170444176 21.19129454753803
rtibia 27.85901558695661
rfoot -4.908029896799386 -6.092667559591146
rtoes 2.4614867904110387
lowerback 9.099546133128966 -1.3344423242209253 -2.605305602132546
upperback 0.45538905754474096 -1.9671946774508715 2.1067224376806983
thorax -4.494634596699857 -0.9023986608554136 3.847543664445738
lowerneck -16.586900774518337 -2.54629291344916 -3.677182332856102
upperneck 21.020182244085614 -3.1427766972756404 1.8181045240062121
head 9.363478010804288 -1.543244794669341 0.8600973988126143
lclavicle -2.2352704440885486e-15 -4.02212366254735e-17
lhumerus -19.8059893351182 -3.4563249953104345 82.46125958982667
lradius 31.044256488779027
lwrist 8.684686513965623
lhand -29.49255290342765 20.819427415002146
lfingers 7.1250199999999975
lthumb -2.827298876387227 50.77004645652584
rclavicle -2.235270444088548e-15 -4.022123662547345e-17
rhumerus -33.18032835869454 -25.063075017433068 -75.23612102172734
rradius 21.238438499283824
rwrist 12.146777819646957
rhand -17.00937989454163 23.35973989241429
rfingers 7.1250199999999975
rthumb 9.226291159530616 -6.205779916409066
